<?xml version="1.0" encoding="UTF-8"?>
<svg xmlns="http://www.w3.org/2000/svg" xmlns:xlink="http://www.w3.org/1999/xlink" viewBox="0 0 32 32" width="32px" height="32px">
<g id="surface47283282">
<path style=" stroke:none;fill-rule:nonzero;fill:rgb(100%,100%,100%);fill-opacity:1;" d="M 16 4.785156 C 12.222656 4.785156 8.445312 5.1875 4.339844 5.992188 C 3.953125 6.066406 3.648438 6.359375 3.558594 6.742188 C 3.363281 7.570312 3.363281 8.429688 3.558594 9.257812 C 3.648438 9.640625 3.953125 9.933594 4.339844 10.007812 C 12.554688 11.617188 19.445312 11.617188 27.660156 10.007812 C 28.042969 9.933594 28.347656 9.640625 28.4375 9.257812 C 28.636719 8.429688 28.636719 7.570312 28.4375 6.742188 C 28.347656 6.359375 28.042969 6.066406 27.660156 5.992188 C 23.554688 5.1875 19.777344 4.785156 16 4.785156 Z M 16 6.777344 C 19.390625 6.777344 22.804688 7.152344 26.496094 7.832031 C 26.5 7.945312 26.5 8.054688 26.496094 8.164062 C 19.117188 9.53125 12.882812 9.53125 5.507812 8.164062 C 5.5 8.054688 5.5 7.945312 5.507812 7.832031 C 9.195312 7.152344 12.609375 6.777344 16 6.777344 Z M 16 12.785156 C 12.222656 12.785156 8.445312 13.1875 4.339844 13.992188 C 3.953125 14.066406 3.648438 14.359375 3.558594 14.742188 C 3.363281 15.570312 3.363281 16.429688 3.558594 17.257812 C 3.648438 17.640625 3.953125 17.933594 4.339844 18.007812 C 12.554688 19.617188 19.445312 19.617188 27.660156 18.007812 C 28.042969 17.933594 28.347656 17.640625 28.4375 17.257812 C 28.636719 16.429688 28.636719 15.570312 28.4375 14.742188 C 28.347656 14.359375 28.042969 14.066406 27.660156 13.992188 C 23.554688 13.1875 19.777344 12.785156 16 12.785156 Z M 16 14.777344 C 19.390625 14.777344 22.804688 15.152344 26.496094 15.832031 C 26.5 15.945312 26.5 16.054688 26.496094 16.164062 C 19.117188 17.53125 12.882812 17.53125 5.507812 16.164062 C 5.5 16.054688 5.5 15.945312 5.507812 15.832031 C 9.195312 15.152344 12.609375 14.777344 16 14.777344 Z M 16 20.785156 C 12.222656 20.785156 8.445312 21.1875 4.339844 21.992188 C 3.953125 22.066406 3.648438 22.359375 3.558594 22.742188 C 3.363281 23.570312 3.363281 24.429688 3.558594 25.257812 C 3.648438 25.640625 3.953125 25.933594 4.339844 26.007812 C 12.554688 27.617188 19.445312 27.617188 27.660156 26.007812 C 28.042969 25.933594 28.347656 25.640625 28.4375 25.257812 C 28.636719 24.429688 28.636719 23.570312 28.4375 22.742188 C 28.347656 22.359375 28.042969 22.066406 27.660156 21.992188 C 23.554688 21.1875 19.777344 20.785156 16 20.785156 Z M 16 22.777344 C 19.390625 22.777344 22.804688 23.152344 26.496094 23.832031 C 26.5 23.945312 26.5 24.054688 26.496094 24.164062 C 19.117188 25.53125 12.882812 25.53125 5.507812 24.164062 C 5.5 24.054688 5.5 23.945312 5.507812 23.832031 C 9.195312 23.152344 12.609375 22.777344 16 22.777344 Z M 16 22.777344 "/>
</g>
</svg>
